<svg class="icon-defaults" viewBox="0 0 32 32"><path d="M22.313 18.063l4.625-4.438-6.375-0.938-1.188-0.188-0.563-1.063-2.813-5.75v17.188l1.063 0.563 5.688 3-1.063-6.313-0.25-1.188zM30.375 13.438l-6.438 6.313 1.5 8.938c0.063 0.375 0.063 0.688-0.125 0.875-0.125 0.25-0.313 0.375-0.563 0.375s-0.438-0.125-0.75-0.25l-8-4.188-8 4.188c-0.313 0.125-0.5 0.25-0.75 0.25s-0.438-0.125-0.563-0.375c-0.188-0.188-0.188-0.5-0.125-0.875l1.5-8.938-6.5-6.313c-0.375-0.438-0.5-0.75-0.375-1.063 0.125-0.375 0.438-0.563 0.938-0.625l9-1.313 4-8.125c0.25-0.5 0.5-0.75 0.875-0.75 0.313 0 0.625 0.25 0.875 0.75l4 8.125 9 1.313c0.5 0.063 0.813 0.25 0.938 0.625 0.125 0.313 0 0.625-0.438 1.063z"></path></svg>